# xmcd
#
# Track frame offsets: 
#        150
#        31603
#        51950
#        88593
#        113218
#        133188
#        151553
#        168305
#        183880
#        205318
#        237478
#        256715
#
# Disc length: 3819 seconds
#
# Revision: 2
# Processed by: cddbd v1.5.2PL0 Copyright (c) Steve Scherf et al.
# Submitted via: ExactAudioCopyFreeDBPlugin 1.0
#
DISCID=920ee90c
DTITLE=Неизвестный исполнитель - Неизвестный альбом
DYEAR=1900
DGENRE=Неизвестный жанр
TTITLE0=Дорожка 1
TTITLE1=Дорожка 2
TTITLE2=Дорожка 3
TTITLE3=Дорожка 4
TTITLE4=Дорожка 5
TTITLE5=Дорожка 6
TTITLE6=Дорожка 7
TTITLE7=Дорожка 8
TTITLE8=Дорожка 9
TTITLE9=Дорожка 10
TTITLE10=Дорожка 11
TTITLE11=Дорожка 12
EXTD=
EXTT0=
EXTT1=
EXTT2=
EXTT3=
EXTT4=
EXTT5=
EXTT6=
EXTT7=
EXTT8=
EXTT9=
EXTT10=
EXTT11=
PLAYORDER=
